HIERARCHY
ROOT hip
{
	OFFSET 0.000000 0.000000 0.000000
	CHANNELS 6 Xposition Yposition Zposition Zrotation Yrotation Xrotation 
	JOINT lhipjoint
	{
		OFFSET 0.000000 0.000000 0.000000
		CHANNELS 3 Zrotation Yrotation Xrotation
		JOINT lfemur
		{
			OFFSET 1.363060 -1.794630 0.839290
			CHANNELS 3 Zrotation Yrotation Xrotation
			JOINT ltibia
			{
				OFFSET 2.448110 -6.726130 0.000000
				CHANNELS 3 Zrotation Yrotation Xrotation
				JOINT lfoot
				{
					OFFSET 2.562200 -7.039590 0.000000
					CHANNELS 3 Zrotation Yrotation Xrotation
					JOINT ltoes
					{
						OFFSET 0.157640 -0.433110 2.322550
						CHANNELS 3 Zrotation Yrotation Xrotation
						End Site
						{
							OFFSET 0.000000 0.000000 0.000000
						}
					}
				}
			}
		}
	}
	JOINT rhipjoint
	{
		OFFSET 0.000000 0.000000 0.000000
		CHANNELS 3 Zrotation Yrotation Xrotation
		JOINT rfemur
		{
			OFFSET -1.305520 -1.794630 0.839290
			CHANNELS 3 Zrotation Yrotation Xrotation
			JOINT rtibia
			{
				OFFSET -2.542530 -6.985550 0.000000
				CHANNELS 3 Zrotation Yrotation Xrotation
				JOINT rfoot
				{
					OFFSET -2.568260 -7.056230 0.000000
					CHANNELS 3 Zrotation Yrotation Xrotation
					JOINT rtoes
					{
						OFFSET -0.164730 -0.452590 2.363150
						CHANNELS 3 Zrotation Yrotation Xrotation
						End Site
						{
							OFFSET 0.000000 0.000000 0.000000
						}
					}
				}
			}
		}
	}
	JOINT lowerback
	{
		OFFSET 0.000000 0.000000 0.000000
		CHANNELS 3 Zrotation Yrotation Xrotation
		JOINT upperback
		{
			OFFSET 0.028270 2.035590 -0.193380
			CHANNELS 3 Zrotation Yrotation Xrotation
			JOINT thorax
			{
				OFFSET 0.056720 2.048850 -0.042750
				CHANNELS 3 Zrotation Yrotation Xrotation
				JOINT lowerneck
				{
					OFFSET 0.000000 0.000000 0.000000
					CHANNELS 3 Zrotation Yrotation Xrotation
					JOINT upperneck
					{
						OFFSET -0.054170 1.746240 0.172020
						CHANNELS 3 Zrotation Yrotation Xrotation
						JOINT head
						{
							OFFSET 0.104070 1.761360 -0.123970
							CHANNELS 3 Zrotation Yrotation Xrotation
							End Site
							{
								OFFSET 0.000000 0.000000 0.000000
							}
						}
					}
				}
				JOINT lclavicle
				{
					OFFSET 0.000000 0.000000 0.000000
					CHANNELS 3 Zrotation Yrotation Xrotation
					JOINT lhumerus
					{
						OFFSET 3.362410 1.200890 -0.311210
						CHANNELS 3 Zrotation Yrotation Xrotation
						JOINT lradius
						{
							OFFSET 4.983000 -0.000000 -0.000000
							CHANNELS 3 Zrotation Yrotation Xrotation
							JOINT lwrist
							{
								OFFSET 3.483560 -0.000000 -0.000000
								CHANNELS 3 Zrotation Yrotation Xrotation
								JOINT lhand
								{
									OFFSET 0.000000 0.000000 0.000000
									CHANNELS 3 Zrotation Yrotation Xrotation
									JOINT lfingers
									{
										OFFSET 0.715260 -0.000000 -0.000000
										CHANNELS 3 Zrotation Yrotation Xrotation
										End Site
										{
											OFFSET 0.000000 0.000000 0.000000
										}
									}
								}
								JOINT lthumb
								{
									OFFSET 0.000000 0.000000 0.000000
									CHANNELS 3 Zrotation Yrotation Xrotation
									End Site
									{
										OFFSET 0.000000 0.000000 0.000000
									}
								}
							}
						}
					}
				}
				JOINT rclavicle
				{
					OFFSET 0.000000 0.000000 0.000000
					CHANNELS 3 Zrotation Yrotation Xrotation
					JOINT rhumerus
					{
						OFFSET -3.136600 1.374050 -0.404650
						CHANNELS 3 Zrotation Yrotation Xrotation
						JOINT rradius
						{
							OFFSET -5.241900 -0.000000 -0.000000
							CHANNELS 3 Zrotation Yrotation Xrotation
							JOINT rwrist
							{
								OFFSET -3.444170 -0.000000 -0.000000
								CHANNELS 3 Zrotation Yrotation Xrotation
								JOINT rhand
								{
									OFFSET 0.000000 0.000000 0.000000
									CHANNELS 3 Zrotation Yrotation Xrotation
									JOINT rfingers
									{
										OFFSET -0.622530 -0.000000 -0.000000
										CHANNELS 3 Zrotation Yrotation Xrotation
										End Site
										{
											OFFSET 0.000000 0.000000 0.000000
										}
									}
								}
								JOINT rthumb
								{
									OFFSET 0.000000 0.000000 0.000000
									CHANNELS 3 Zrotation Yrotation Xrotation
									End Site
									{
										OFFSET 0.000000 0.000000 0.000000
									}
								}
							}
						}
					}
				}
			}
		}
	}
}
MOTION
Frames: 6
Frame Time: 0.008333
1.198735 15.672773 14.822855 -1.764497 9.802525 -10.008617 -4.747373 -3.779520 -0.645400 -8.476730 -5.231689 -2.613241 4.977892 13.900926 38.796609 0.831350 -5.868324 -15.962263 0.559200 -4.789900 -13.310200 2.564315 4.590433 -2.987751 25.602525 12.450066 7.926785 -3.466725 -9.724901 22.837023 1.381494 -18.163437 -22.533790 -0.241700 3.164000 -8.735700 6.160879 -2.785589 15.311013 1.402025 -2.482970 -5.396845 -4.609184 -1.616525 -3.448128 -2.216755 1.670799 -6.622806 -1.730102 3.238010 14.857634 -2.535900 1.913200 3.961700 -3.605647 -5.792520 2.109185 -88.442035 -1.757187 -34.570504 5.712295 -11.527268 -1.290150 0.434713 0.584030 48.421557 11.992532 -6.109360 -1.466100 -7.125000 0.000000 0.000000 -10.714500 23.021100 5.769300 6.251875 6.355285 3.350459 74.300820 -13.517536 33.870635 -17.237502 36.595767 -4.266641 -0.684195 -1.877648 9.870259 -15.511676 13.353926 -4.126300 7.125000 0.000000 0.000000 8.383400 -14.147600 6.147400 
1.203124 15.681910 14.865942 -1.793057 9.811649 -9.912956 -4.743179 -3.773877 -0.648413 -8.573214 -5.593899 -2.604951 4.773050 13.592373 37.742448 0.827051 -5.777744 -15.959246 0.590600 -4.920400 -13.681700 2.566580 4.609492 -2.997925 25.853027 12.744152 8.425204 -3.423013 -9.620430 22.466815 1.426627 -18.515822 -22.899824 -0.242200 3.167400 -8.745100 6.171291 -2.767360 15.239260 1.405619 -2.460096 -5.404407 -4.578352 -1.606372 -3.432123 -2.200356 1.689542 -6.694024 -1.700623 3.252693 14.748566 -2.535800 1.919000 3.937200 -3.616544 -5.807935 2.107969 -88.435431 -1.741414 -36.304922 5.577035 -11.086611 -1.238390 0.426109 0.553531 50.245191 11.813372 -5.936925 -1.401400 -7.125000 0.000000 0.000000 -10.854700 23.231300 5.794100 6.307652 6.362294 3.342502 74.383182 -13.969450 33.881684 -18.141488 37.391713 -4.556800 -0.688501 -1.929902 9.520288 -15.736637 13.555192 -4.256300 7.125000 0.000000 0.000000 8.240000 -13.865700 6.089800 
1.208409 15.690957 14.909477 -1.819261 9.809902 -9.801262 -4.739697 -3.766034 -0.650536 -8.687063 -5.977873 -2.604755 4.594326 13.304884 36.784144 0.820454 -5.542171 -15.951401 0.602000 -4.966500 -13.813000 2.568558 4.628102 -3.007027 26.116550 13.094793 8.946225 -3.379128 -9.507058 22.072330 1.480943 -18.925581 -23.288458 -0.240500 3.155700 -8.712500 6.176448 -2.752905 15.134021 1.410000 -2.445058 -5.413920 -4.542226 -1.600317 -3.407303 -2.217537 1.712935 -6.771663 -1.643004 3.272363 14.663812 -2.514900 1.927000 3.920100 -3.632614 -5.824431 2.107789 -88.406116 -1.697091 -37.865203 5.467412 -10.703489 -1.193746 0.416841 0.524025 51.911219 11.604111 -5.811476 -1.344100 -7.125000 0.000000 0.000000 -11.016200 23.393700 5.841600 6.363465 6.365932 3.333251 74.450922 -14.424337 33.958105 -19.060368 38.193144 -4.861756 -0.693924 -1.981020 9.136738 -15.980563 13.772903 -4.397300 7.125000 0.000000 0.000000 8.087400 -13.565100 6.026500 
1.214769 15.699109 14.952654 -1.868800 9.805023 -9.726654 -4.739289 -3.762376 -0.653734 -8.786189 -6.381414 -2.544536 4.437600 13.045231 35.922290 0.814600 -5.148297 -15.985993 0.577300 -4.865500 -13.525400 2.573601 4.648757 -3.016774 26.430266 13.461883 9.524699 -3.333789 -9.392398 21.669911 1.542695 -19.371470 -23.694428 -0.242600 3.169400 -8.750600 6.212050 -2.740166 15.058163 1.414335 -2.427295 -5.421673 -4.523223 -1.592456 -3.393265 -2.244527 1.732364 -6.819234 -1.585582 3.283283 14.564494 -2.490900 1.930400 3.887900 -3.653068 -5.844139 2.110411 -88.350777 -1.655075 -39.286278 5.378616 -10.362246 -1.153530 0.404456 0.495933 53.427342 11.330493 -5.689474 -1.281100 -7.125000 0.000000 0.000000 -11.225200 23.554600 5.914200 6.420271 6.370218 3.323548 74.534754 -14.911884 33.985789 -20.017486 39.020956 -5.192571 -0.699970 -2.032367 8.803484 -16.233321 13.990350 -4.543600 7.125000 0.000000 0.000000 7.929700 -13.262100 5.957700 
1.222473 15.705558 14.995383 -1.906878 9.796213 -9.648433 -4.739988 -3.757499 -0.656644 -8.906000 -6.804095 -2.465008 4.300155 12.807204 35.141191 0.806877 -4.642104 -16.029661 0.556600 -4.778800 -13.278700 2.578136 4.668772 -3.025255 26.723311 13.841724 10.082126 -3.293843 -9.287067 21.301713 1.596803 -19.790518 -24.133726 -0.242400 3.168300 -8.747800 6.232040 -2.728752 14.972820 1.421787 -2.412352 -5.430124 -4.469524 -1.585166 -3.374693 -2.329979 1.755081 -6.886768 -1.504991 3.301663 14.498929 -2.441600 1.935900 3.871100 -3.676310 -5.863380 2.111949 -88.309062 -1.629502 -40.664600 5.305674 -10.048144 -1.117334 0.393990 0.463815 54.956059 11.036149 -5.676483 -1.238000 -7.125000 0.000000 0.000000 -11.446400 23.606800 6.021200 6.482565 6.368992 3.313863 74.544442 -15.409011 34.121350 -21.013210 39.863019 -5.545616 -0.703104 -2.081896 8.353607 -16.459167 14.193720 -4.678700 7.125000 0.000000 0.000000 7.792400 -12.978500 5.899300 
1.230804 15.711471 15.037395 -1.959397 9.782038 -9.569953 -4.740531 -3.755128 -0.660616 -9.004453 -7.200746 -2.366047 4.180885 12.595645 34.449526 0.797627 -4.087543 -16.083544 0.532400 -4.675700 -12.985900 2.583880 4.685003 -3.029260 27.053241 14.285838 10.636584 -3.260844 -9.195656 20.984256 1.649681 -20.221149 -24.627331 -0.241500 3.162300 -8.731000 6.280961 -2.713334 14.881995 1.423770 -2.392012 -5.439039 -4.472307 -1.576075 -3.361935 -2.360589 1.773155 -6.924289 -1.428127 3.307058 14.412355 -2.407600 1.937400 3.839200 -3.701590 -5.885186 2.115610 -88.228476 -1.528959 -41.603564 5.259415 -9.841032 -1.092059 0.381989 0.440018 56.082735 10.746481 -5.642516 -1.193300 -7.125000 0.000000 0.000000 -11.663700 23.674400 6.121700 6.536332 6.374496 3.302191 74.641181 -15.904901 34.158443 -21.972841 40.677671 -5.902205 -0.709808 -2.131394 8.024584 -16.728738 14.405888 -4.832500 7.125000 0.000000 0.000000 7.627100 -12.678300 5.820100 
